<?xml version="1.0" encoding="UTF-8"?>
<svg width="250" height="80" viewBox="0 0 250 80" xmlns="http://www.w3.org/2000/svg">
  <rect x="0" y="0" width="250" height="80" fill="#cc9966"></rect>
  <text x="57.1628" y="42.647333333333336" fill="#c0392b" font-size="28" font-family="Arial, sans-serif" transform="rotate(-9.3 57.16 42.65)">9</text>
  <text x="93.6038" y="44.51213333333334" fill="#d35400" font-size="28" font-family="Arial, sans-serif" transform="rotate(-9.2 93.60 44.51)">-</text>
  <text x="122.5328" y="45.99653333333333" fill="#e67e22" font-size="28" font-family="Arial, sans-serif" transform="rotate(6.4 122.53 46.00)">5</text>
  <text x="156.3428" y="42.23993333333333" fill="#8e44ad" font-size="28" font-family="Arial, sans-serif" transform="rotate(11.5 156.34 42.24)">=</text>
  <line x1="140.42499999999998" y1="75" x2="178.125" y2="11.776" stroke="#d5dbdb" stroke-width="1.66595"></line>
  <line x1="63.55" y1="79.52" x2="18.974999999999998" y2="46.536" stroke="#f7dc6f" stroke-width="1.9032499999999999"></line>
  <line x1="210.375" y1="42.472" x2="240.4" y2="2.3280000000000003" stroke="#d5dbdb" stroke-width="1.2542"></line>
  <line x1="64.07499999999999" y1="78.8" x2="186.175" y2="13.856" stroke="#aed6f1" stroke-width="1.13735"></line>
  <line x1="105.2" y1="68.456" x2="214.775" y2="75.144" stroke="#d5dbdb" stroke-width="1.2632"></line>
  <line x1="21.425" y1="39.936" x2="203.42499999999998" y2="54.208" stroke="#f8c471" stroke-width="0.6246499999999999"></line>
  <circle cx="178.1" cy="75" r="2.7196000000000002" fill="#ecf0f1"></circle>
  <circle cx="60.075" cy="28.216" r="2.167" fill="#95a5a6"></circle>
  <circle cx="223.05" cy="22.688000000000002" r="3.3502" fill="#95a5a6"></circle>
  <circle cx="42.8" cy="13.4" r="2.0209" fill="#d5dbdb"></circle>
  <circle cx="1.15" cy="54.88" r="3.133" fill="#95a5a6"></circle>
  <circle cx="142.32500000000002" cy="68.688" r="1.7197" fill="#aed6f1"></circle>
  <circle cx="190.675" cy="66.512" r="2.3464" fill="#f7dc6f"></circle>
  <circle cx="68.2" cy="43.296" r="2.3308" fill="#f8c471"></circle>
  <circle cx="16.549999999999997" cy="76.152" r="2.1127000000000002" fill="#ecf0f1"></circle>
</svg>