<?xml version="1.0" encoding="UTF-8"?>
<svg width="250" height="80" viewBox="0 0 250 80" xmlns="http://www.w3.org/2000/svg">
  <rect x="0" y="0" width="250" height="80" fill="#cc9966"></rect>
  <text x="57.197599999999994" y="52.49093333333334" fill="#16a085" font-size="28" font-family="Arial, sans-serif" transform="rotate(-3.2 57.20 52.49)">8</text>
  <text x="90.467" y="48.924533333333336" fill="#27ae60" font-size="28" font-family="Arial, sans-serif" transform="rotate(7.6 90.47 48.92)">+</text>
  <text x="122.9702" y="47.702933333333334" fill="#e74c3c" font-size="28" font-family="Arial, sans-serif" transform="rotate(-12.7 122.97 47.70)">7</text>
  <text x="158.86100000000002" y="51.839933333333335" fill="#8e44ad" font-size="28" font-family="Arial, sans-serif" transform="rotate(-9.0 158.86 51.84)">=</text>
  <line x1="88" y1="51.775999999999996" x2="228.67499999999998" y2="63.815999999999995" stroke="#d5dbdb" stroke-width="1.96655"></line>
  <line x1="163.39999999999998" y1="42.648" x2="157.35" y2="76.28" stroke="#bdc3c7" stroke-width="0.9160999999999999"></line>
  <line x1="161.125" y1="58.992000000000004" x2="239.07500000000002" y2="43.992000000000004" stroke="#f7dc6f" stroke-width="1.7889499999999998"></line>
  <line x1="21.15" y1="52.70400000000001" x2="24.375" y2="5.36" stroke="#f8c471" stroke-width="1.21625"></line>
  <line x1="67.35" y1="53.368" x2="17.925" y2="61.736000000000004" stroke="#f8c471" stroke-width="0.82175"></line>
  <line x1="211.85000000000002" y1="49.376" x2="219.5" y2="35.024" stroke="#f7dc6f" stroke-width="1.43645"></line>
  <circle cx="117.675" cy="12.72" r="2.4817" fill="#d5dbdb"></circle>
  <circle cx="12.925" cy="79.52799999999999" r="1.1164" fill="#ecf0f1"></circle>
  <circle cx="109.64999999999999" cy="75.28" r="2.6215" fill="#bdc3c7"></circle>
  <circle cx="245.225" cy="21.176" r="3.9181" fill="#aed6f1"></circle>
  <circle cx="34.5" cy="41.72" r="1.6582" fill="#f7dc6f"></circle>
  <circle cx="69.325" cy="41.544" r="2.3190999999999997" fill="#aed6f1"></circle>
  <circle cx="161.89999999999998" cy="1.824" r="3.3907000000000003" fill="#ecf0f1"></circle>
  <circle cx="233.55" cy="27.656" r="3.1315" fill="#f8c471"></circle>
  <circle cx="89.475" cy="29.824" r="3.4732000000000003" fill="#ecf0f1"></circle>
</svg>