<?xml version="1.0" encoding="UTF-8"?>
<svg width="250" height="80" viewBox="0 0 250 80" xmlns="http://www.w3.org/2000/svg">
  <rect x="0" y="0" width="250" height="80" fill="#cc9966"></rect>
  <text x="40.0124" y="49.120333333333335" fill="#16a085" font-size="28" font-family="Arial, sans-serif" transform="rotate(-2.5 40.01 49.12)">1</text>
  <text x="54.831199999999995" y="49.60933333333333" fill="#2980b9" font-size="28" font-family="Arial, sans-serif" transform="rotate(-5.9 54.83 49.61)">5</text>
  <text x="89.8142" y="48.833533333333335" fill="#c0392b" font-size="28" font-family="Arial, sans-serif" transform="rotate(-4.6 89.81 48.83)">-</text>
  <text x="126.4046" y="48.35353333333333" fill="#1a1a1a" font-size="28" font-family="Arial, sans-serif" transform="rotate(-2.4 126.40 48.35)">1</text>
  <text x="144.281" y="48.27793333333334" fill="#8e44ad" font-size="28" font-family="Arial, sans-serif" transform="rotate(-5.0 144.28 48.28)">3</text>
  <text x="173.0774" y="48.15493333333333" fill="#34495e" font-size="28" font-family="Arial, sans-serif" transform="rotate(-1.3 173.08 48.15)">=</text>
  <line x1="62.025" y1="36.392" x2="50.15" y2="13.232" stroke="#d5dbdb" stroke-width="1.3241"></line>
  <line x1="65.65" y1="2.6" x2="84.4" y2="50.839999999999996" stroke="#f8c471" stroke-width="1.24355"></line>
  <line x1="5.225" y1="54.928" x2="98.55" y2="32.176" stroke="#aed6f1" stroke-width="1.22705"></line>
  <line x1="215.35000000000002" y1="2.448" x2="31.675" y2="40.632000000000005" stroke="#f7dc6f" stroke-width="0.66515"></line>
  <line x1="134.65" y1="54.504000000000005" x2="1.75" y2="77.552" stroke="#95a5a6" stroke-width="0.52175"></line>
  <line x1="192.89999999999998" y1="47.912" x2="125.82499999999999" y2="35.752" stroke="#bdc3c7" stroke-width="0.5279"></line>
  <circle cx="28.35" cy="42.92" r="2.956" fill="#aed6f1"></circle>
  <circle cx="9.700000000000001" cy="72.088" r="3.0952" fill="#a9dfbf"></circle>
  <circle cx="70.725" cy="22.848000000000003" r="2.5153" fill="#aed6f1"></circle>
  <circle cx="122.85" cy="43.232" r="3.5878" fill="#d5dbdb"></circle>
  <circle cx="53.525000000000006" cy="22.512" r="1.1886999999999999" fill="#d5dbdb"></circle>
  <circle cx="46.25" cy="48.144" r="1.4437" fill="#d5dbdb"></circle>
  <circle cx="72.7" cy="40.583999999999996" r="3.5422000000000002" fill="#f7dc6f"></circle>
  <circle cx="31.475" cy="70.536" r="2.113" fill="#95a5a6"></circle>
  <circle cx="94.05" cy="49.06399999999999" r="3.5989" fill="#f7dc6f"></circle>
</svg>